<?xml version="1.0" encoding="UTF-8" standalone="no"?>
<svg
   width="1000"
   height="1000"
   viewBox="0 0 1000 1000"
   version="1.1"
   id="svg1"
   sodipodi:docname="U0024_DOLLAR.svg"
   inkscape:version="1.4.3 (0d15f75, 2025-12-25)"
   xmlns:inkscape="http://www.inkscape.org/namespaces/inkscape"
   xmlns:sodipodi="http://sodipodi.sourceforge.net/DTD/sodipodi-0.dtd"
   xmlns="http://www.w3.org/2000/svg"
   xmlns:svg="http://www.w3.org/2000/svg">
  <defs
     id="defs1" />
  <sodipodi:namedview
     id="namedview1"
     pagecolor="#505050"
     bordercolor="#ffffff"
     borderopacity="1"
     inkscape:showpageshadow="0"
     inkscape:pageopacity="0"
     inkscape:pagecheckerboard="1"
     inkscape:deskcolor="#505050"
     inkscape:zoom="0.585"
     inkscape:cx="500"
     inkscape:cy="500"
     inkscape:window-width="1440"
     inkscape:window-height="829"
     inkscape:window-x="-8"
     inkscape:window-y="-8"
     inkscape:window-maximized="1"
     inkscape:current-layer="svg1" />
  <!-- U+0024 -->
  <path
     id="path1"
     style="fill:#000000;paint-order:stroke fill markers"
     d="M 499.14453 97.435547 L 468.37695 147.00781 L 469.72852 198.37109 L 434.1875 193.16211 L 333.33398 263.24805 L 311.11133 285.4707 L 321.36719 405.12891 L 477.99609 512.53125 L 482.69531 691.12891 L 379.48633 707.69141 L 326.49609 635.89648 L 348.71875 776.06836 L 484.58594 762.95117 L 487.17969 861.53906 L 512.82031 827.34961 L 511.56445 760.3457 L 596.58203 752.13672 L 651.28125 680.3418 L 656.41016 548.71875 L 505.70312 447.51367 L 502.41016 271.69727 L 582.90625 276.92383 L 637.60742 372.65039 L 632.47852 222.22266 L 501.12109 202.9707 L 499.14453 97.435547 z M 451.28125 268.37695 L 471.60547 269.69727 L 475.75586 427.40234 L 422.22266 391.45312 L 406.83789 331.62305 L 451.28125 268.37695 z M 507.29883 532.62305 L 560.68359 569.23047 L 517.94922 685.4707 L 510.18555 686.7168 L 507.29883 532.62305 z " />
</svg>
