<?xml version="1.0" encoding="UTF-8" standalone="no"?>
<svg
   width="1000"
   height="1000"
   viewBox="0 0 1000 1000"
   version="1.1"
   id="svg1"
   sodipodi:docname="U003A_COLON.svg"
   inkscape:version="1.4.3 (0d15f75, 2025-12-25)"
   xmlns:inkscape="http://www.inkscape.org/namespaces/inkscape"
   xmlns:sodipodi="http://sodipodi.sourceforge.net/DTD/sodipodi-0.dtd"
   xmlns="http://www.w3.org/2000/svg"
   xmlns:svg="http://www.w3.org/2000/svg">
  <defs
     id="defs1" />
  <sodipodi:namedview
     id="namedview1"
     pagecolor="#505050"
     bordercolor="#ffffff"
     borderopacity="1"
     inkscape:showpageshadow="0"
     inkscape:pageopacity="0"
     inkscape:pagecheckerboard="1"
     inkscape:deskcolor="#505050"
     inkscape:zoom="0.585"
     inkscape:cx="499.1453"
     inkscape:cy="500"
     inkscape:window-width="1440"
     inkscape:window-height="829"
     inkscape:window-x="-8"
     inkscape:window-y="-8"
     inkscape:window-maximized="1"
     inkscape:current-layer="svg1" />
  <!-- U+003A -->
  <path
     id="rect1"
     style="stroke-width:16.734"
     d="m 470.67913,379.48718 h 62.06055 c 9.79897,0 17.68767,7.88871 17.68767,17.68768 v 58.64174 c 0,9.79898 -7.8887,17.68768 -17.68767,17.68768 h -62.06055 c -9.79897,0 -17.68767,-7.8887 -17.68767,-17.68768 v -58.64174 c 0,-9.79897 7.8887,-17.68768 17.68767,-17.68768 z" />
  <path
     id="rect2"
     style="stroke-width:16.734"
     d="m 463.84151,666.66669 h 63.76996 c 9.79897,0 17.68767,7.8887 17.68767,17.68767 v 65.47935 c 0,9.79897 -7.8887,17.68768 -17.68767,17.68768 h -63.76996 c -9.79897,0 -17.68767,-7.88871 -17.68767,-17.68768 v -65.47935 c 0,-9.79897 7.8887,-17.68767 17.68767,-17.68767 z" />
</svg>
