<?xml version="1.0" encoding="UTF-8" standalone="no"?>
<svg
   width="1000"
   height="1000"
   viewBox="0 0 1000 1000"
   version="1.1"
   id="svg1"
   sodipodi:docname="U0040_AT.svg"
   inkscape:version="1.4.3 (0d15f75, 2025-12-25)"
   xmlns:inkscape="http://www.inkscape.org/namespaces/inkscape"
   xmlns:sodipodi="http://sodipodi.sourceforge.net/DTD/sodipodi-0.dtd"
   xmlns="http://www.w3.org/2000/svg"
   xmlns:svg="http://www.w3.org/2000/svg">
  <defs
     id="defs1" />
  <sodipodi:namedview
     id="namedview1"
     pagecolor="#505050"
     bordercolor="#ffffff"
     borderopacity="1"
     inkscape:showpageshadow="0"
     inkscape:pageopacity="0"
     inkscape:pagecheckerboard="1"
     inkscape:deskcolor="#505050"
     inkscape:zoom="0.607"
     inkscape:cx="500"
     inkscape:cy="500"
     inkscape:window-width="1440"
     inkscape:window-height="829"
     inkscape:window-x="-8"
     inkscape:window-y="-8"
     inkscape:window-maximized="1"
     inkscape:current-layer="svg1" />
  <!-- U+0040 -->
  <path
     id="path1"
     style="stroke-width:16.734"
     d="M 555.18945 205.93164 L 263.5918 306.42578 L 176.27734 485.99609 L 248.76367 782.53711 L 398.68164 868.20508 L 673.80469 831.96094 L 800.6582 675.45312 L 802.30664 611.20312 L 665.56836 785.83203 L 401.97656 818.78125 L 265.23828 736.4082 L 233.9375 474.46484 L 293.24609 355.84766 L 538.71484 255.35352 L 789.12695 322.90039 L 728.17188 647.44727 L 634.26758 698.51758 L 602.96484 680.39453 L 705.10742 345.96289 L 616.14453 342.66797 L 604.61328 393.74023 L 588.13867 364.08594 L 388.79688 405.27148 L 321.25195 728.17188 L 512.35547 698.51758 L 565.07422 658.97852 L 545.30469 728.17188 L 616.14453 772.65234 L 752.88281 652.38867 L 822.07617 304.77734 L 550.24805 215.81641 L 555.18945 205.93164 z M 563.42578 397.03516 L 523.88867 635.91406 L 500.82422 658.97852 L 377.26562 672.1582 L 420.09961 434.92578 L 563.42578 397.03516 z " />
</svg>
