<?xml version="1.0" encoding="UTF-8" standalone="no"?>
<svg
   width="1000"
   height="1000"
   viewBox="0 0 1000 1000"
   version="1.1"
   id="svg1"
   sodipodi:docname="U+006F_o.svg"
   inkscape:version="1.4.3 (0d15f75, 2025-12-25)"
   xmlns:inkscape="http://www.inkscape.org/namespaces/inkscape"
   xmlns:sodipodi="http://sodipodi.sourceforge.net/DTD/sodipodi-0.dtd"
   xmlns="http://www.w3.org/2000/svg"
   xmlns:svg="http://www.w3.org/2000/svg">
  <defs
     id="defs1" />
  <sodipodi:namedview
     id="namedview1"
     pagecolor="#505050"
     bordercolor="#ffffff"
     borderopacity="1"
     inkscape:showpageshadow="0"
     inkscape:pageopacity="0"
     inkscape:pagecheckerboard="1"
     inkscape:deskcolor="#505050"
     inkscape:zoom="0.585"
     inkscape:cx="499.1453"
     inkscape:cy="500"
     inkscape:window-width="1440"
     inkscape:window-height="829"
     inkscape:window-x="-8"
     inkscape:window-y="-8"
     inkscape:window-maximized="1"
     inkscape:current-layer="svg1" />
  <!-- U+006F -->
  <path
     id="path2"
     style="stroke-width:0.634825;paint-order:stroke fill markers"
     sodipodi:type="inkscape:offset"
     inkscape:radius="10.92877"
     inkscape:original="M 562.98438 442.73438 L 408.99219 466.96094 L 398.29883 481.27734 L 389.74414 497.79492 L 390.8125 509.9082 L 413.27148 507.89648 L 389.74414 512.10938 L 405.78516 707.01953 L 413.26953 724.63867 L 429.31055 736.75195 L 571.53906 729.04297 L 598.27344 716.93164 L 615.38477 694.90625 L 611.10742 483.47852 L 600.41406 460.35352 L 562.98438 442.73438 z M 544.80469 465.85938 L 575.81641 483.47852 L 585.44141 493.39062 L 592.92773 680.5918 L 576.88672 692.70508 L 558.70703 701.51367 L 462.46289 705.91797 L 444.2832 701.51367 L 434.6582 691.60352 L 414.34961 507.80078 L 415.4082 507.70508 L 414.33984 487.88281 L 416.47852 485.68164 L 544.80469 465.85938 z "
     d="m 561.28516,431.9375 -153.99219,24.22656 a 10.929863,10.929863 0 0 0 -7.05664,4.25586 l -10.69336,14.31641 a 10.929863,10.929863 0 0 0 -0.94922,1.51562 l -8.55469,16.51758 a 10.929863,10.929863 0 0 0 -1.18164,5.98633 l 0.9668,10.95508 a 10.929863,10.929863 0 0 0 -0.97266,3.29492 l 16.04102,194.91016 a 10.929863,10.929863 0 0 0 0.83398,3.37695 l 7.48438,17.61914 a 10.929863,10.929863 0 0 0 3.47265,4.44726 l 16.04102,12.11329 a 10.929863,10.929863 0 0 0 7.17773,2.1914 l 142.22852,-7.70898 a 10.929863,10.929863 0 0 0 3.91797,-0.95703 l 26.73437,-12.11133 a 10.929863,10.929863 0 0 0 4.1211,-3.25 l 17.11132,-22.02539 a 10.929863,10.929863 0 0 0 2.29493,-6.92578 L 622.0332,483.25781 a 10.929863,10.929863 0 0 0 -1.00586,-4.36719 l -10.69336,-23.125 a 10.929863,10.929863 0 0 0 -5.26562,-5.30078 L 567.63867,432.8457 a 10.929863,10.929863 0 0 0 -6.35351,-0.9082 z m -18.57032,45.30273 26.34766,14.97071 5.625,5.79297 7.0918,177.3125 -10.62305,8.02148 -15.19336,7.36133 -92.44141,4.23047 -13.59765,-3.29492 -4.81446,-4.95704 -19.58203,-177.24023 a 10.929863,10.929863 0 0 0 0.79297,-2.32031 l -0.63476,-11.79883 z" />
</svg>
