<?xml version="1.0" encoding="UTF-8" standalone="no"?>
<svg
   width="1000"
   height="1000"
   viewBox="0 0 1000 1000"
   version="1.1"
   id="svg1"
   sodipodi:docname="U+0051_Q.svg"
   inkscape:version="1.4.3 (0d15f75, 2025-12-25)"
   xmlns:inkscape="http://www.inkscape.org/namespaces/inkscape"
   xmlns:sodipodi="http://sodipodi.sourceforge.net/DTD/sodipodi-0.dtd"
   xmlns="http://www.w3.org/2000/svg"
   xmlns:svg="http://www.w3.org/2000/svg">
  <defs
     id="defs1" />
  <sodipodi:namedview
     id="namedview1"
     pagecolor="#505050"
     bordercolor="#ffffff"
     borderopacity="1"
     inkscape:showpageshadow="0"
     inkscape:pageopacity="0"
     inkscape:pagecheckerboard="1"
     inkscape:deskcolor="#505050"
     inkscape:zoom="0.585"
     inkscape:cx="500"
     inkscape:cy="500"
     inkscape:window-width="1440"
     inkscape:window-height="829"
     inkscape:window-x="-8"
     inkscape:window-y="-8"
     inkscape:window-maximized="1"
     inkscape:current-layer="svg1" />
  <!-- U+0051 -->
  <path
     style="paint-order:stroke fill markers"
     d="m 251.28205,292.30769 22.22222,-46.15384 49.57265,-39.31624 343.58975,-8.54701 63.24786,34.18803 23.93162,42.73505 -5.1282,376.06837 -52.99145,58.11966 -133.33334,39.31624 -17.09401,-29.05983 -18.80342,-34.18803 116.23931,-41.02565 41.02564,-54.70085 -13.67521,-270.08547 -32.47863,-39.31624 -47.86325,-11.96581 h -203.4188 l -42.73505,37.60684 -35.89743,41.02564 6.8376,307.6923 42.73505,23.93163 87.17948,8.54701 44.44445,-5.12821 64.95726,114.52992 121.36753,41.02564 H 517.94872 l -61.53846,-76.92308 -100.8547,-3.4188 -88.88889,-37.60684 -23.93163,-15.38462 z"
     id="path1" />
</svg>
