<?xml version="1.0" encoding="UTF-8" standalone="no"?>
<svg
   width="1000"
   height="1000"
   viewBox="0 0 1000 1000"
   version="1.1"
   id="svg1"
   sodipodi:docname="U+0067_g.svg"
   inkscape:version="1.4.3 (0d15f75, 2025-12-25)"
   xmlns:inkscape="http://www.inkscape.org/namespaces/inkscape"
   xmlns:sodipodi="http://sodipodi.sourceforge.net/DTD/sodipodi-0.dtd"
   xmlns="http://www.w3.org/2000/svg"
   xmlns:svg="http://www.w3.org/2000/svg">
  <defs
     id="defs1" />
  <sodipodi:namedview
     id="namedview1"
     pagecolor="#505050"
     bordercolor="#ffffff"
     borderopacity="1"
     inkscape:showpageshadow="0"
     inkscape:pageopacity="0"
     inkscape:pagecheckerboard="1"
     inkscape:deskcolor="#505050"
     inkscape:zoom="0.585"
     inkscape:cx="499.1453"
     inkscape:cy="500"
     inkscape:window-width="1440"
     inkscape:window-height="829"
     inkscape:window-x="-8"
     inkscape:window-y="-8"
     inkscape:window-maximized="1"
     inkscape:current-layer="svg1" />
  <!-- U+0067 -->
  <path
     id="path1"
     style="paint-order:stroke fill markers"
     d="M 608.54688 367.52148 L 623.93164 386.32422 L 622.22266 401.70898 L 396.58203 400 L 345.29883 464.95703 L 358.97461 586.32422 L 403.41797 615.38477 L 593.16211 611.96484 L 610.25586 641.02539 L 615.38477 847.86328 L 577.77734 890.59766 L 384.61523 894.01758 L 358.97461 839.31641 L 328.20508 852.99219 L 372.65039 945.29883 L 596.58203 952.13672 L 687.17969 864.95703 L 682.05078 369.23047 L 608.54688 367.52148 z M 422.22266 432.47852 L 601.70898 437.60742 L 579.48633 459.82812 L 577.77734 569.23047 L 406.83789 577.77734 L 379.48633 558.97461 L 388.03516 471.79492 L 422.22266 432.47852 z M 341.88086 711.11133 L 311.11133 765.8125 L 335.04297 846.1543 L 360.68359 832.47852 L 388.03516 885.4707 L 398.29102 887.17969 L 374.35938 815.38477 L 357.26562 786.32422 L 367.52148 770.93945 L 564.10352 764.10352 L 567.52148 712.82031 L 341.88086 711.11133 z " />
</svg>
