<?xml version="1.0" encoding="UTF-8" standalone="no"?>
<svg
   width="1000"
   height="1000"
   viewBox="0 0 1000 1000"
   version="1.1"
   id="svg1"
   sodipodi:docname="U+0043_C.svg"
   inkscape:version="1.4.3 (0d15f75, 2025-12-25)"
   xmlns:inkscape="http://www.inkscape.org/namespaces/inkscape"
   xmlns:sodipodi="http://sodipodi.sourceforge.net/DTD/sodipodi-0.dtd"
   xmlns="http://www.w3.org/2000/svg"
   xmlns:svg="http://www.w3.org/2000/svg">
  <defs
     id="defs1" />
  <sodipodi:namedview
     id="namedview1"
     pagecolor="#505050"
     bordercolor="#ffffff"
     borderopacity="1"
     inkscape:showpageshadow="0"
     inkscape:pageopacity="0"
     inkscape:pagecheckerboard="1"
     inkscape:deskcolor="#505050"
     inkscape:zoom="0.585"
     inkscape:cx="499.1453"
     inkscape:cy="500"
     inkscape:window-width="1440"
     inkscape:window-height="829"
     inkscape:window-x="-8"
     inkscape:window-y="-8"
     inkscape:window-maximized="1"
     inkscape:current-layer="svg1" />
  <!-- U+0043 -->
  <path
     style="paint-order:stroke fill markers"
     d="m 692.30769,627.35043 -56.41026,70.08547 -32.47863,22.22222 -158.97436,-3.41881 -56.41025,-42.73504 -63.24787,-155.55555 18.80342,-68.37607 59.82906,-157.26496 88.88889,-44.44444 162.39316,17.09401 23.93163,44.44445 -30.76923,80.34188 73.50427,39.31624 37.60684,-44.44445 -47.86325,-18.80341 27.35043,-63.24787 -63.24786,-87.17948 -3.41881,17.09401 -241.02564,-46.15384 -88.88889,59.82905 -75.21367,256.41026 56.41025,223.93163 75.21368,59.82906 264.95726,1.7094 3.41881,-39.31624 58.11965,-49.57265 44.44445,-3.4188 -8.54701,-73.50428 -17.09402,1.7094 z"
     id="path1"
     sodipodi:nodetypes="cccccccccccccccccccccccccccccc" />
</svg>
