<?xml version="1.0" encoding="UTF-8" standalone="no"?>
<svg
   width="1000"
   height="1000"
   viewBox="0 0 1000 1000"
   version="1.1"
   id="svg1"
   sodipodi:docname="U+006D_m.svg"
   inkscape:version="1.4.3 (0d15f75, 2025-12-25)"
   xmlns:inkscape="http://www.inkscape.org/namespaces/inkscape"
   xmlns:sodipodi="http://sodipodi.sourceforge.net/DTD/sodipodi-0.dtd"
   xmlns="http://www.w3.org/2000/svg"
   xmlns:svg="http://www.w3.org/2000/svg">
  <defs
     id="defs1" />
  <sodipodi:namedview
     id="namedview1"
     pagecolor="#505050"
     bordercolor="#ffffff"
     borderopacity="1"
     inkscape:showpageshadow="0"
     inkscape:pageopacity="0"
     inkscape:pagecheckerboard="1"
     inkscape:deskcolor="#505050"
     inkscape:zoom="0.585"
     inkscape:cx="499.1453"
     inkscape:cy="500"
     inkscape:window-width="1440"
     inkscape:window-height="829"
     inkscape:window-x="-8"
     inkscape:window-y="-8"
     inkscape:window-maximized="1"
     inkscape:current-layer="svg1" />
  <!-- U+006D -->
  <path
     style="paint-order:stroke fill markers"
     d="m 305.98291,364.10256 -80.34188,23.93163 20.51282,6.8376 8.547,304.27351 -47.86324,3.4188 -3.41881,56.41026 176.06838,-5.12821 -8.54701,-61.53846 -46.15385,1.7094 -1.7094,-213.67521 107.69231,-41.02564 37.60684,22.22222 3.4188,217.09402 -51.28205,6.83761 6.83761,61.53846 176.06837,3.4188 -5.1282,-80.34188 -51.28205,-1.7094 -6.83761,-193.16239 51.28205,-39.31624 92.30769,22.22222 5.12821,203.4188 -71.79487,5.12821 10.25641,78.63248 188.03419,3.4188 -22.22223,-92.30769 H 762.39316 L 757.26496,434.18803 572.64957,377.77778 576.06838,396.5812 502.5641,434.18803 358.97436,379.48718 367.52137,400 317.94872,435.89744 Z"
     id="path1" />
</svg>
