<?xml version="1.0" encoding="UTF-8" standalone="no"?>
<svg
   width="1000"
   height="1000"
   viewBox="0 0 1000 1000"
   version="1.1"
   id="svg1"
   sodipodi:docname="U+0042_B.svg"
   inkscape:version="1.4.3 (0d15f75, 2025-12-25)"
   xmlns:inkscape="http://www.inkscape.org/namespaces/inkscape"
   xmlns:sodipodi="http://sodipodi.sourceforge.net/DTD/sodipodi-0.dtd"
   xmlns="http://www.w3.org/2000/svg"
   xmlns:svg="http://www.w3.org/2000/svg">
  <defs
     id="defs1" />
  <sodipodi:namedview
     id="namedview1"
     pagecolor="#505050"
     bordercolor="#ffffff"
     borderopacity="1"
     inkscape:showpageshadow="0"
     inkscape:pageopacity="0"
     inkscape:pagecheckerboard="1"
     inkscape:deskcolor="#505050"
     inkscape:zoom="0.585"
     inkscape:cx="499.1453"
     inkscape:cy="500"
     inkscape:window-width="1440"
     inkscape:window-height="829"
     inkscape:window-x="-8"
     inkscape:window-y="-8"
     inkscape:window-maximized="1"
     inkscape:current-layer="svg1" />
  <!-- U+0042 -->
  <path
     id="path1"
     style="paint-order:stroke fill markers"
     d="M 292.30859 191.45312 L 282.05078 254.70117 L 311.11133 258.11914 L 323.07617 676.92383 L 283.75977 685.4707 L 283.75977 753.8457 L 582.90625 748.71875 C 784.92395 674.96083 666.03242 511.49522 570.93945 483.75977 L 682.05078 393.16211 L 697.43555 317.94922 L 620.51367 218.80273 L 292.30859 191.45312 z M 401.70898 256.41016 C 401.70898 256.41016 550.42773 248.92649 550.42773 341.88086 C 550.42773 463.24838 403.41797 441.02539 403.41797 441.02539 L 401.70898 256.41016 z M 428.91992 514.93164 C 465.54426 514.85323 538.56524 526.07361 536.75195 617.09375 C 534.42647 733.82458 403.41797 707.69141 403.41797 707.69141 L 408.54688 516.24023 C 408.54688 516.24023 416.71181 514.95778 428.91992 514.93164 z " />
</svg>
